<svg viewBox="0 0 96 96" xmlns="http://www.w3.org/2000/svg" xmlns:serif="http://www.serif.com/" fill-rule="evenodd" clip-rule="evenodd" stroke-linejoin="round" stroke-miterlimit="1.4"><path serif:id="8" fill="none" d="M0 0h96v96H0z"/><clipPath id="a"><path d="M0 0h96v96H0z"/></clipPath><g clip-path="url(#a)"><circle cx="22" cy="64" r="22" fill="#ff785c"/><clipPath id="b"><circle cx="22" cy="64" r="22"/></clipPath><g clip-path="url(#b)"><path fill="#e2445c" d="M22 36h28v58H22z"/><path d="M35 73.5c0-3.6-3-6.5-6.5-6.5h-13a6.5 6.5 0 1 0 0 13h13c3.6 0 6.5-3 6.5-6.5z" fill="#ff785c"/><path d="M40.2 81a8 8 0 0 0-5.2-5.3L27 73H17l-8 2.7A8 8 0 0 0 3.8 81L1 91h42l-2.8-10z" fill="#2d41bc"/><clipPath id="c"><path d="M40.2 81a8 8 0 0 0-5.2-5.3L27 73H17l-8 2.7A8 8 0 0 0 3.8 81L1 91h42l-2.8-10z"/></clipPath><g clip-path="url(#c)"><path fill="#276fe3" d="M3 70h19v21H3z"/><circle cx="22" cy="85" r="4" fill="#276fe3"/><circle cx="22" cy="74" r="8" fill="#ffdf5a"/><path fill="#ffdf5a" d="M20 80h4v7h-4z"/><path d="M14 87a2 2 0 1 0-4 0v4a2 2 0 1 0 4 0v-4zM35 87a2 2 0 1 0-4 0v4a2 2 0 1 0 4 0v-4z" fill="#e05555"/><circle cx="22" cy="91" r="3" fill="#ff785c"/></g></g><path d="M15.1 49.2A3 3 0 0 1 11 45l4.2 4.2z" fill="#903639"/><path d="M27 65H16.7v8.9c0 2.8 2.3 5.1 5.2 5.1 2.8 0 5.1-2.3 5.1-5.1V65z" fill="#f1bca8"/><path d="M27 64h-5v8l5 1v-9z" fill="#ec9b8b"/><path d="M34.1 59.2c0-.7-.6-1.2-1.3-1.2H11.3c-.8 0-1.4.5-1.4 1.2l-.1 1a4.3 4.3 0 0 0 .5 2.6c.4.7 1.2 1.2 2.1 1.2h18.8a3 3 0 0 0 2.7-1.6c.3-.7.5-1.4.4-2.2l-.2-1z" fill="#f1bca8"/><path d="M25 49.5c0-1.4 1.1-2.5 2.5-2.5h1a6 6 0 0 1 5.8 7.2l-.9 3.9c-.2 1.1-1.2 1.9-2.4 1.9h-3.5a2.5 2.5 0 0 1-2.5-2.5v-8z" fill="#903639"/><clipPath id="d"><path d="M25 49.5c0-1.4 1.1-2.5 2.5-2.5h1a6 6 0 0 1 5.8 7.2l-.9 3.9c-.2 1.1-1.2 1.9-2.4 1.9h-3.5a2.5 2.5 0 0 1-2.5-2.5v-8z"/></clipPath><g clip-path="url(#d)"><path d="M35 55s-2.1.2-3-2c0 0-.5-3.9-3-4v11h4l2-5z" fill="#602324"/></g><path d="M19 49.5c0-1.4-1.1-2.5-2.5-2.5h-1a6 6 0 0 0-5.8 7.2l.9 3.9c.2 1.1 1.2 1.9 2.4 1.9h3.5a2.5 2.5 0 0 0 2.5-2.5v-8z" fill="#903639"/><clipPath id="e"><path d="M19 49.5c0-1.4-1.1-2.5-2.5-2.5h-1a6 6 0 0 0-5.8 7.2l.9 3.9c.2 1.1 1.2 1.9 2.4 1.9h3.5a2.5 2.5 0 0 0 2.5-2.5v-8z"/></clipPath><g clip-path="url(#e)"><path d="M9 55s2.1.2 3-2c0 0 .5-3.9 3-4v11h-4l-2-5z" fill="#602324"/></g><path d="M31 55a9 9 0 1 0-18 0v7c0 4.3 2.5 8.1 6.3 9.8 1.7.8 3.7.8 5.4 0 3.8-1.7 6.3-5.5 6.3-9.7V55z" fill="#ffe0d3"/><clipPath id="f"><path d="M31 55a9 9 0 1 0-18 0v7c0 4.3 2.5 8.1 6.3 9.8 1.7.8 3.7.8 5.4 0 3.8-1.7 6.3-5.5 6.3-9.7V55z"/></clipPath><g clip-path="url(#f)" fill="#fff7f4"><path d="M24 71a2 2 0 0 0-2-2 2 2 0 0 0-2 2 2 2 0 0 0 2 2 2 2 0 0 0 2-2zM18 63a2 2 0 0 0-2-2 2 2 0 0 0-2 2 2 2 0 0 0 2 2c1 0 2-1 2-2zM30 63a2 2 0 0 0-2-2 2 2 0 0 0-2 2 2 2 0 0 0 4 0z"/></g><path d="M29 55H15v1a3 3 0 0 0 3 3h8a3 3 0 0 0 3-3v-1z" fill="#f1bca8"/><path d="M23.1 57c0-.6-.5-1-1.1-1-.6 0-1 .4-1.1 1l-.9 6h4l-.9-6zM26 52a3 3 0 0 0-3-3h-2a3 3 0 1 0 0 6h2a3 3 0 0 0 3-3z" fill="#fff7f4"/><path d="M24 63a2 2 0 1 0-4 0h4z" fill="#eda68f"/><circle cx="17.5" cy="58.5" r="1.5" fill="#774a4a"/><circle cx="26.5" cy="58.5" r="1.5" fill="#774a4a"/><path d="M26 65h-8a3 3 0 0 0 3 3h2a3 3 0 0 0 3-3z" fill="#313131"/><clipPath id="g"><path d="M26 65h-8a3 3 0 0 0 3 3h2a3 3 0 0 0 3-3z"/></clipPath><g clip-path="url(#g)"><circle cx="22" cy="62" r="4" fill="#fff"/><circle cx="22" cy="71" r="4" fill="#e44f4c"/></g><path d="M24 69c0-.6-.4-1-1-1h-2a1 1 0 0 0 0 2h2c.6 0 1-.4 1-1z" fill="#f1bca8"/><path d="M20 55a2 2 0 0 0-2-2h-1a2 2 0 0 0-2 2h5zM29 55a2 2 0 0 0-2-2h-1a2 2 0 0 0-2 2h5z" fill="#903639"/><circle cx="66" cy="78" r="18" fill="#25917d"/><clipPath id="h"><circle cx="66" cy="78" r="18"/></clipPath><g clip-path="url(#h)"><path fill="#32c157" d="M48 56h18v42H48z"/><path d="M70 64a4 4 0 0 0-4-4 4 4 0 0 0-4 4 4 4 0 0 0 4 4 4 4 0 0 0 4-4z" fill="#32c157"/><path d="M62 85h-4l-3 1.8c-1.2.7-2 2.1-2 3.6V97h9V85zM70 85h4l3 1.8c1.2.7 2 2.1 2 3.6V97h-9V85z" fill="#5d1db3"/><path d="M74 85.3c0-1.8-1.5-3.3-3.3-3.3h-9.4a3.3 3.3 0 0 0-3.3 3.3V98h16V85.3z" fill="#5d1db3"/><path d="M58 93a1 1 0 0 0-2 0v3h2v-3zM76 93a1 1 0 0 0-2 0v3h2v-3z" fill="#35007c"/><path fill="#d0eefb" d="M63 85h6v12h-6z"/><clipPath id="i"><path d="M63 85h6v12h-6z"/></clipPath><g clip-path="url(#i)"><circle cx="66" cy="85" r="6" fill="#fff"/></g></g><circle cx="21" cy="21" r="15" fill="#7e3eef"/><clipPath id="j"><circle cx="21" cy="21" r="15"/></clipPath><g clip-path="url(#j)"><path fill="#6a21c9" d="M21 6h19v30H21z"/><path d="M31 32.3a6 6 0 0 0-4.1-5.7L22 25h-2l-4.9 1.6a6 6 0 0 0-4.1 5.7V36h20v-3.7z" fill="#40d0ff"/><path d="M16 34a1 1 0 0 0-1.7-.7 1 1 0 0 0-.3.7v3a1 1 0 0 0 1.7.7c.2-.2.3-.4.3-.7v-3zM28 34a1 1 0 0 0-1.7-.7 1 1 0 0 0-.3.7v3a1 1 0 0 0 1.7.7c.2-.2.3-.4.3-.7v-3z" fill="#3696ff"/></g><circle cx="21" cy="21" r="15" fill="#7e3eef"/><clipPath id="k"><circle cx="21" cy="21" r="15"/></clipPath><g clip-path="url(#k)"><path fill="#6a21c9" d="M21 6h19v30H21z"/><path d="M31 32.3a6 6 0 0 0-4.1-5.7L22 25h-2l-4.9 1.6a6 6 0 0 0-4.1 5.7V36h20v-3.7z" fill="#40d0ff"/><path d="M16 34a1 1 0 0 0-1.7-.7 1 1 0 0 0-.3.7v3a1 1 0 0 0 1.7.7c.2-.2.3-.4.3-.7v-3zM28 34a1 1 0 0 0-1.7-.7 1 1 0 0 0-.3.7v3a1 1 0 0 0 1.7.7c.2-.2.3-.4.3-.7v-3z" fill="#3696ff"/></g><path d="M28 20a2 2 0 0 0-2-2H16a2 2 0 1 0 0 4h10a2 2 0 0 0 2-2z" fill="#f1bca8"/><path d="M26 17a5 5 0 0 0-10 0v4a5 5 0 0 0 5 5 5 5 0 0 0 5-5v-4z" fill="#ffe0d3"/><path d="M26 22H16v3a5 5 0 0 0 5 5 5 5 0 0 0 5-5v-3z" fill="#453235"/><path d="M24 22a2 2 0 0 0-2-2h-2a2 2 0 0 0 0 4h2a2 2 0 0 0 2-2z" fill="#453235"/><path d="M18 21a1 1 0 0 0-2 0v2a1 1 0 0 0 2 0v-2zM26 21a1 1 0 0 0-2 0v2a1 1 0 0 0 2 0v-2z" fill="#453235"/><path d="M22 22h-2c0 .6.4 1 1 1s1-.4 1-1z" fill="#ffe0d3"/><path d="M20 20h2c0-.6-.4-1-1-1a1 1 0 0 0-1 1z" fill="#f1bca8"/><circle cx="19" cy="18" r="1" fill="#bd9690"/><circle cx="23" cy="18" r="1" fill="#bd9690"/><path d="M23 28.5a1.5 1.5 0 0 0-1.5-1.5h-1a1.5 1.5 0 0 0-1.5 1.5 1.5 1.5 0 0 0 1.5 1.5h1a1.5 1.5 0 0 0 1.5-1.5z" fill="#664b46"/><circle cx="21" cy="9" r="3" fill="#7e3eef"/><circle cx="69" cy="27" r="27" fill="#ffb15a"/><clipPath id="l"><circle cx="69" cy="27" r="27"/></clipPath><g clip-path="url(#l)"><circle cx="59" cy="28" r="27" fill="#ffdf5a"/><path d="M92 15a5 5 0 0 0-5-5h-4a5 5 0 0 0-5 5 5 5 0 0 0 5 5h4a5 5 0 0 0 5-5zM95 35a5 5 0 0 0-5-5h-4a5 5 0 0 0-5 5 5 5 0 0 0 5 5h4a5 5 0 0 0 5-5z" fill="#ffb15a"/><path d="M84 7a5 5 0 0 0-10 0 5 5 0 0 0 10 0z" fill="#ffdf5a"/><path d="M82-5a10 10 0 0 0-10-10h-7A10 10 0 0 0 55-5v7a10 10 0 0 0 10 10h7A10 10 0 0 0 82 2v-7z" fill="#ffdf5a"/><path d="M60 36.2V15h19v21.5L74.6 35 74 35H64l-.6.1-3.4 1.1z"/><path d="M87.2 45a8 8 0 0 0-5.2-5.3L74 37H64l-8 2.7a8 8 0 0 0-5.2 5.4L48 55h42l-2.8-10z" fill="#ff785c"/><clipPath id="m"><path d="M87.2 45a8 8 0 0 0-5.2-5.3L74 37H64l-8 2.7a8 8 0 0 0-5.2 5.4L48 55h42l-2.8-10z"/></clipPath><g clip-path="url(#m)"><path fill="#ffa35c" d="M50 34h19v21H50z"/><circle cx="69" cy="38" r="8" fill="#e05555"/><path d="M60 51a2 2 0 1 0-4 0v4a2 2 0 1 0 4 0v-4zM83 51a2 2 0 1 0-4 0v4a2 2 0 1 0 4 0v-4z" fill="#e05555"/><circle cx="69" cy="49" r="3" fill="#ffa35c"/><circle cx="69" cy="55" r="3" fill="#ff785c"/></g></g><path d="M90 25a5 5 0 0 0-10 0 5 5 0 0 0 10 0z" fill="#ffdf5a"/><path d="M74 32a5 5 0 0 0-10 0v6a5 5 0 0 0 10 0v-6z" fill="#f1bca8"/><path d="M74 29h-5v7l5 1v-8z" fill="#ec9b8b"/><path d="M82 25a3 3 0 0 0-3-3H59a3 3 0 1 0 0 6h20a3 3 0 0 0 3-3z" fill="#f1bca8"/><path d="M82 16A13 13 0 0 0 69 3a13 13 0 0 0-13 13v9h26v-9z" fill="#313131"/><path d="M79 20a10 10 0 0 0-10-10 10 10 0 0 0-10 10v5.5a11 11 0 0 0 7 10.3l1.8.7c.8.3 1.6.3 2.4 0l1.9-.7A11 11 0 0 0 79 25.5V20z" fill="#ffe0d3"/><clipPath id="n"><path d="M79 20a10 10 0 0 0-10-10 10 10 0 0 0-10 10v5.5a11 11 0 0 0 7 10.3l1.8.7c.8.3 1.6.3 2.4 0l1.9-.7A11 11 0 0 0 79 25.5V20z"/></clipPath><g clip-path="url(#n)"><circle cx="69" cy="35" r="2" fill="#fff7f4"/></g><path d="M71 28a2 2 0 1 0-4 0h4z" fill="#f1bca8"/><circle cx="64.5" cy="23.5" r="1.5" fill="#774a4a"/><circle cx="73.5" cy="23.5" r="1.5" fill="#774a4a"/><path d="M73.4 22a.3.3 0 0 0-.2.4L74 24a2 2 0 0 0 2-2h-2.6z" fill="#774a4a"/><path d="M71.4 31.8a1 1 0 0 0-1.1-1.2c-.4.2-.9.4-1.3.4s-.8-.2-1.3-.4a1 1 0 0 0-1.1 1.2c.2.7 1 1.2 1.7 1.2h1.4c.8 0 1.5-.5 1.7-1.2z" fill="#ff785c"/><path d="M64 10l-8 5v24a5 5 0 0 0 5 5V21.2a3 3 0 0 0 3-3V10z" fill="#313131"/><path d="M64.6 22a.3.3 0 0 1 .2.4L64 24a2 2 0 0 1-2-2h2.6z" fill="#774a4a"/><path d="M73 9l6 1 3 6v23a5 5 0 0 1-5 5V25.5c0-2-1.6-3.5-3.5-3.5H71a8 8 0 0 1-8-8v-4l10-1z" fill="#313131"/><path d="M69 30.2a1.6 1.6 0 0 1 2-.3l.4.1a.4.4 0 0 1 0 .8 5.6 5.6 0 0 1-4.9 0 .4.4 0 0 1 0-.8l.5-.1a1.6 1.6 0 0 1 2 .3z" fill="#e14f4c"/><path d="M68 11a2 2 0 1 0-4 0v2a2 2 0 1 0 4 0v-2z" fill="#4f4f4f"/><path d="M71 41a2 2 0 0 0-2-2 2 2 0 0 0-2 2 2 2 0 0 0 2 2 2 2 0 0 0 2-2zM24 77a2 2 0 0 0-2-2 2 2 0 0 0-2 2 2 2 0 0 0 2 2c1 0 2-1 2-2z" fill="#ffe0d3"/><path d="M65 28a2 2 0 0 0-2-2 2 2 0 0 0-2 2 2 2 0 0 0 2 2c1 0 2-1 2-2zM77 28a2 2 0 0 0-2-2 2 2 0 0 0-2 2 2 2 0 0 0 4 0z" fill="#fff7f4"/><path d="M69 81h-6v5a3 3 0 0 0 3 3 3 3 0 0 0 3-3v-5z" fill="#e6835e"/><path d="M75 72a9 9 0 0 0-9-9 9 9 0 0 0-9 9v8c2 0 4-.5 5.7-1.3L66 77l3.3 1.7c1.8.8 3.7 1.3 5.7 1.3v-8z" fill="#fff786"/><path d="M74 77a2 2 0 0 0-2-2H60a2 2 0 1 0 0 4h12a2 2 0 0 0 2-2z" fill="#ffb66b"/><path d="M72 75a7.5 7.5 0 0 0-6-12 7.5 7.5 0 0 0-6 12h12z" fill="#fc2c38"/><clipPath id="o"><path d="M72 75a7.5 7.5 0 0 0-6-12 7.5 7.5 0 0 0-6 12h12z"/></clipPath><g clip-path="url(#o)"><path fill="#a72c38" d="M66 60h10v15H66z"/></g><path d="M72 74a6 6 0 1 0-12 0v4a6 6 0 1 0 12 0v-4z" fill="#ffb66b"/><path d="M68 82a2 2 0 1 0-4 0 2 2 0 0 0 4 0z" fill="#ffe1a3"/><path d="M68 78.5h-4v.5a2 2 0 0 0 4 0v-.5z" fill="#ffb66b"/><path d="M63 78.5c0-.8-.7-1.5-1.5-1.5a1.5 1.5 0 0 0-1.5 1.5 1.5 1.5 0 0 0 1.5 1.5c.8 0 1.5-.7 1.5-1.5zM72 78.5a1.5 1.5 0 1 0-3 0 1.5 1.5 0 0 0 3 0z" fill="#ffe1a3"/><path d="M65 77h2c0-.6-.4-1-1-1a1 1 0 0 0-1 1z" fill="#e6835e"/><circle cx="63" cy="75" r="1" fill="#774a4a"/><circle cx="69" cy="75" r="1" fill="#774a4a"/><path d="M32 43l-3-.8a934.7 934.7 0 0 0-3.4-1.2c-1.6-.7-3.3-1-5-1H17a5 5 0 0 0 0 10h7c4 0 7.4-3 8-6.9V43z" fill="#903639"/><path d="M33 46l-10-3v7h6a4 4 0 0 0 4-4z" fill="#903639"/><path d="M18.5 65.1a1 1 0 0 0 0-1.4 1 1 0 0 0-1.3 0l-.8.7a1 1 0 0 0 1.4 1.4l.7-.7zM25.5 65.1a1 1 0 0 1 0-1.4 1 1 0 0 1 1.3 0l.8.7c.4.4.4 1 0 1.4a1 1 0 0 1-1.5 0l-.6-.7z" fill="#f1bca8"/><path d="M18 46a2 2 0 0 0-2-2 2 2 0 0 0-2 2 2 2 0 0 0 2 2 2 2 0 0 0 2-2z" fill="#a64439"/><circle cx="66" cy="87" r="2" fill="#ffb66b"/><path d="M63 86.5a1.5 1.5 0 0 0-1.5-1.5 1.5 1.5 0 0 0-1.5 1.5v3a1.5 1.5 0 0 0 1.5 1.5 1.5 1.5 0 0 0 1.5-1.5v-3zM72 86.5a1.5 1.5 0 0 0-3 0v3a1.5 1.5 0 0 0 3 0v-3z" fill="#8035b3"/><path d="M72 73a6 6 0 1 0-12 0v1h5.8c1.3 0 2.4-.9 2.7-2.1L69 70l.5 2c.3 1.2 1.3 2 2.5 2v-1z" fill="#fff773"/><circle cx="66" cy="65" r="2" fill="#fc2c38"/><circle cx="66" cy="65" r="2" fill="#fc2c38"/><g><circle cx="89" cy="60" r="6.9" fill="#2cbaed"/></g><g><circle cx="40" cy="91" r="5" fill="#ffb65a"/></g><path d="M68 78.5h-4c0 .8.7 1.5 1.5 1.5h1c.8 0 1.5-.7 1.5-1.5z" fill="#fff"/><path d="M52 25a3 3 0 1 0-6 0v4a3 3 0 1 0 6 0v-4z" fill="#fffba2"/><path d="M8 64.5a2.5 2.5 0 1 0-5 0v1a2.5 2.5 0 1 0 5 0v-1z" fill="#ffa85c"/></g></svg>